<svg xmlns="http://www.w3.org/2000/svg" xmlns:xlink="http://www.w3.org/1999/xlink" width="100" height="100" viewBox="0 0 100 100">
    <defs>
        <path id="a" d="M36.826 2.222l-28.82 16.64A15.73 15.73 0 0 0 .139 32.486v33.282c0 5.62 3 10.813 7.867 13.624l28.82 16.64a15.735 15.735 0 0 0 15.733 0l28.821-16.64a15.733 15.733 0 0 0 7.867-13.624V32.485a15.73 15.73 0 0 0-7.867-13.622L52.56 2.222A15.72 15.72 0 0 0 44.693.115c-2.716 0-5.432.702-7.867 2.107z"/>
    </defs>
    <g fill="none" fill-rule="evenodd">
        <g transform="translate(5 .719)">
            <mask id="b" fill="#fff">
                <use xlink:href="#a"/>
            </mask>
            <path fill="#0F186D" d="M56.09 107.15h53.88V41.874H56.09z" mask="url(#b)"/>
            <path fill="#583889" d="M86.478 91.485l-27.07-18.138.13-.357 52.055 5.441.069.37-24.987 12.697z" mask="url(#b)"/>
            <path fill="#583889" d="M111.573 78.626l-52.056-5.442 27.07 18.138z" mask="url(#b)"/>
            <path fill="#582C7D" d="M47.018 106.936l-.178-.264 12.494-33.555.362-.014 15.617 34.464-.185.276z" mask="url(#b)"/>
            <path fill="#582C7D" d="M59.518 73.184l-12.494 33.557 28.11.906z" mask="url(#b)"/>
            <path fill="#583889" d="M74.956 107.729L59.338 73.266l.289-.243 27.068 18.138.051.275-11.45 16.324z" mask="url(#b)"/>
            <path fill="#583889" d="M59.518 73.184l15.616 34.463 11.452-16.324z" mask="url(#b)"/>
            <path fill="#5C518F" d="M59.498 73.38l-.16-.273 12.494-29.021.309-.07 39.56 34.463-.147.342z" mask="url(#b)"/>
            <path fill="#5C518F" d="M72.011 44.162L59.518 73.185l52.056 5.441z" mask="url(#b)"/>
            <path fill="#719560" d="M71.882 44.31l.19-.333 43.728 14.51.129.226-4.165 19.952-.32.108z" mask="url(#b)"/>
            <path fill="#719560" d="M72.011 44.162l39.563 34.464 4.164-19.952z" mask="url(#b)"/>
            <path fill="#719560" d="M71.949 44.349l.007-.374 55.178-16.325.24.256-11.453 30.835-.244.117z" mask="url(#b)"/>
            <path fill="#719560" d="M127.19 27.838L72.012 44.162l43.727 14.512z" mask="url(#b)"/>
            <path fill="#583889" d="M24.06 99.672l-.057-.343 35.398-26.3.3.224-12.494 33.556-.242.117z" mask="url(#b)"/>
            <path fill="#583889" d="M59.518 73.184L24.12 99.485l22.904 7.256z" mask="url(#b)"/>
            <path fill="#5C518F" d="M23.936 99.555L17.69 83.231l.139-.26 41.644-9.976.162.347-35.399 26.3z" mask="url(#b)"/>
            <path fill="#5C518F" d="M17.873 83.16l6.247 16.325 35.398-26.3z" mask="url(#b)"/>
            <path fill="#657079" d="M48.935 54.232l.093-.272 22.905-9.977.257.257-12.493 29.022-.351.017z" mask="url(#b)"/>
            <path fill="#657079" d="M72.011 44.162L49.106 54.14l10.412 19.046z" mask="url(#b)"/>
            <path fill="#626681" d="M17.74 83.018l31.233-29.023.304.05L59.69 73.091l-.126.284-41.646 9.976z" mask="url(#b)"/>
            <path fill="#626681" d="M49.106 54.139L17.873 83.16l41.645-9.976z" mask="url(#b)"/>
            <path fill="#77A853" d="M47.996 35.276l-.048-.34 22.905-17.23.312.148 1.041 26.301-.265.19z" mask="url(#b)"/>
            <path fill="#77A853" d="M70.97 17.862L48.064 35.093l23.945 9.07z" mask="url(#b)"/>
            <path fill="#6A816E" d="M48.911 54.15L47.87 35.103l.265-.194 23.946 9.07.008.362-22.904 9.977z" mask="url(#b)"/>
            <path fill="#6A816E" d="M72.011 44.162l-23.946-9.068 1.041 19.045z" mask="url(#b)"/>
            <path fill="#6A816E" d="M17.678 83.137l4.165-34.463.232-.169 27.07 5.443.094.334-31.233 29.022z" mask="url(#b)"/>
            <path fill="#6A816E" d="M49.106 54.139l-27.069-5.442-4.164 34.464z" mask="url(#b)"/>
            <path fill="#719560" d="M71.816 44.17l-1.041-26.3.229-.2 56.22 9.976.021.38L72.067 44.35z" mask="url(#b)"/>
            <path fill="#719560" d="M70.97 17.862l1.04 26.3 55.18-16.324z" mask="url(#b)"/>
            <path fill="#B7CD3E" d="M70.935 18.054l-.127-.303L83.302-.39l.267-.053 43.727 28.115-.14.357z" mask="url(#b)"/>
            <path fill="#B7CD3E" d="M83.463-.277L70.97 17.861l56.221 9.977z" mask="url(#b)"/>
            <path fill="#605C87" d="M-16.532 89.7l.012-.382 34.357-6.348.219.121 6.246 16.326-.23.26z" mask="url(#b)"/>
            <path fill="#605C87" d="M-16.485 89.51l40.604 9.976-6.247-16.326z" mask="url(#b)"/>
            <path fill="#719560" d="M21.998 48.89l-.052-.366L47.975 34.92l.286.162 1.04 19.046-.233.203z" mask="url(#b)"/>
            <path fill="#719560" d="M48.065 35.093L22.037 48.697l27.07 5.441z" mask="url(#b)"/>
            <path fill="#77A853" d="M21.843 48.674l3.123-25.394.283-.15 22.905 11.79.001.347L22.128 48.87z" mask="url(#b)"/>
            <path fill="#77A853" d="M25.16 23.303l-3.123 25.394 26.028-13.604z" mask="url(#b)"/>
            <path fill="#7FB947" d="M25.07 23.477l.068-.368 45.808-5.442.142.351L48.183 35.25l-.207.017z" mask="url(#b)"/>
            <path fill="#7FB947" d="M70.97 17.862l-45.81 5.44 22.905 11.791z" mask="url(#b)"/>
            <path fill="#687775" d="M-16.667 89.438l10.412-26.302.307-.077 23.945 19.952-.09.342-34.357 6.35z" mask="url(#b)"/>
            <path fill="#687775" d="M-6.073 63.208L-16.485 89.51l34.358-6.348z" mask="url(#b)"/>
            <path fill="#719560" d="M-6.198 63.359l.035-.324 28.11-14.51.284.196-4.165 34.464-.318.126z" mask="url(#b)"/>
            <path fill="#719560" d="M22.037 48.697l-28.11 14.51 23.945 19.954z" mask="url(#b)"/>
            <path fill="#77A853" d="M-6.269 63.195l2.083-29.929.294-.155 26.028 15.42-.01.34-28.11 14.511z" mask="url(#b)"/>
            <path fill="#77A853" d="M-3.991 33.28l-2.083 29.928 28.111-14.51z" mask="url(#b)"/>
            <path fill="#AACA40" d="M25.027 23.16L58.344-7.677l.308.058 12.494 25.394-.154.28-45.809 5.442z" mask="url(#b)"/>
            <path fill="#AACA40" d="M58.476-7.533L25.16 23.304l45.81-5.443z" mask="url(#b)"/>
            <path fill="#C6D23C" d="M70.794 17.948L58.301-7.446l.23-.274L83.517-.465l.107.298-12.494 18.14z" mask="url(#b)"/>
            <path fill="#C6D23C" d="M83.463-.277L58.476-7.533 70.97 17.861z" mask="url(#b)"/>
            <path fill="#7FB947" d="M-4.091 33.447l.036-.352 29.151-9.977.258.209-3.122 25.395-.295.144z" mask="url(#b)"/>
            <path fill="#7FB947" d="M25.16 23.303L-3.99 33.28l26.028 15.417z" mask="url(#b)"/>
            <path fill="#AACA40" d="M-4.187 33.28V6.071l.295-.17L25.26 23.135l-.036.354-29.151 9.976z" mask="url(#b)"/>
            <path fill="#AACA40" d="M-3.991 6.071V33.28l29.152-9.975z" mask="url(#b)"/>
            <path fill="#C9D63B" d="M24.966 23.322l-3.124-32.65.204-.214 36.44 1.815.123.338-33.316 30.835z" mask="url(#b)"/>
            <path fill="#C9D63B" d="M58.476-7.533l-36.44-1.813 3.124 32.65z" mask="url(#b)"/>
            <path fill="#D1D739" d="M-4.09 6.24v-.336L21.937-9.515l.295.15 3.123 32.65-.295.186z" mask="url(#b)"/>
            <path fill="#D1D739" d="M22.037-9.347L-3.992 6.071 25.16 23.303z" mask="url(#b)"/>
        </g>
        <path fill="#FFF" d="M61.913 69.395a2.442 2.442 0 0 0 2.44-2.445 2.442 2.442 0 0 0-2.44-2.443 2.442 2.442 0 0 0-2.44 2.443 2.442 2.442 0 0 0 2.44 2.445zm-24.4 0a2.442 2.442 0 0 0 2.44-2.445 2.442 2.442 0 0 0-2.44-2.443 2.442 2.442 0 0 0-2.44 2.443 2.442 2.442 0 0 0 2.44 2.445zm0-19.55H60.4l7.32-14.662H37.513v14.663zm24.4 9.774c4.043.003 7.318 3.287 7.316 7.336-.002 4.048-3.281 7.329-7.324 7.327-4.042-.003-7.318-3.286-7.316-7.335 0-.832.142-1.656.419-2.44h-10.59c1.347 3.818-.652 8.006-4.464 9.355a7.318 7.318 0 0 1-9.34-4.471 7.338 7.338 0 0 1 .09-5.128c-3.907-1.036-6.236-5.05-5.202-8.963a7.32 7.32 0 0 1 7.13-5.454v-19.55h-4.88a2.442 2.442 0 0 1-2.44-2.445 2.442 2.442 0 0 1 2.44-2.443h7.32a2.442 2.442 0 0 1 2.44 2.443v2.445h34.161a2.442 2.442 0 0 1 2.196 3.543l-9.76 19.55a2.442 2.442 0 0 1-2.196 1.344h-29.28a2.441 2.441 0 0 0-2.44 2.443 2.441 2.441 0 0 0 2.44 2.443h29.28z"/>
    </g>
</svg>
