<svg xmlns="http://www.w3.org/2000/svg" viewBox="0 0 100 100" width="100" height="100">

<defs>
	<linearGradient x1="24.5820312%" y1="7.52734375%" x2="66.4335938%" y2="100%" id="ka-gradient-green">
		<stop stop-color="#f2dc34" offset="0%"></stop>
		<stop stop-color="#7eba46" offset="100%"></stop>
	</linearGradient>
	<linearGradient x1="24.5820312%" y1="7.52734375%" x2="66.4335938%" y2="100%" id="ka-gradient-purple">
		<stop stop-color="#582b7b" offset="0%"></stop>
		<stop stop-color="#009AD7" offset="100%"></stop>
	</linearGradient>
</defs>
 
<g transform="translate(2.4, 7)" fill="url(#ka-gradient-green)" stroke="url(#ka-gradient-green)" stroke-width="3">
	<path d="M64.2319142,0 L30.7673781,0 C25.7538222,0 21.1200812,2.67484601 18.6133033,7.01802871 L1.88056046,35.9988506 C-0.627167019,40.3410837 -0.627167019,45.6917253 1.88056046,50.0339584 L18.6133033,79.0157298 C21.1200812,83.357963 25.7538222,86.0318595 30.7673781,86.0318595 L64.2319142,86.0318595 C69.2464196,86.0318595 73.8792111,83.357963 76.3869386,79.0157298 L93.1196814,50.0339584 C95.6264593,45.6917253 95.6264593,40.3410837 93.1196814,35.9988506 L76.3869386,7.01802871 C73.8792111,2.67484601 69.2464196,0 64.2319142,0"></path>
</g>

<path fill="#FFF" d="M61.913 69.395a2.442 2.442 0 0 0 2.44-2.445 2.442 2.442 0 0 0-2.44-2.443 2.442 2.442 0 0 0-2.44 2.443 2.442 2.442 0 0 0 2.44 2.445zm-24.4 0a2.442 2.442 0 0 0 2.44-2.445 2.442 2.442 0 0 0-2.44-2.443 2.442 2.442 0 0 0-2.44 2.443 2.442 2.442 0 0 0 2.44 2.445zm0-19.55H60.4l7.32-14.662H37.513v14.663zm24.4 9.774c4.043.003 7.318 3.287 7.316 7.336-.002 4.048-3.281 7.329-7.324 7.327-4.042-.003-7.318-3.286-7.316-7.335 0-.832.142-1.656.419-2.44h-10.59c1.347 3.818-.652 8.006-4.464 9.355a7.318 7.318 0 0 1-9.34-4.471 7.338 7.338 0 0 1 .09-5.128c-3.907-1.036-6.236-5.05-5.202-8.963a7.32 7.32 0 0 1 7.13-5.454v-19.55h-4.88a2.442 2.442 0 0 1-2.44-2.445 2.442 2.442 0 0 1 2.44-2.443h7.32a2.442 2.442 0 0 1 2.44 2.443v2.445h34.161a2.442 2.442 0 0 1 2.196 3.543l-9.76 19.55a2.442 2.442 0 0 1-2.196 1.344h-29.28a2.441 2.441 0 0 0-2.44 2.443 2.441 2.441 0 0 0 2.44 2.443h29.28z"/>

</svg>